<svg xmlns="http://www.w3.org/2000/svg" width="830" height="410" viewBox="0 0 830 410" font-family="system-ui, -apple-system, Segoe UI, Helvetica, Arial, sans-serif">
<rect width="830" height="410" fill="#fcfcfb"/>
<text x="16.0" y="26.0" font-size="15" text-anchor="start" fill="#0b0b0b" font-weight="600">Wall time relative to 8 processes (lower is faster)</text>
<rect x="16.0" y="37.0" width="10" height="10" rx="2" fill="#2a78d6"/>
<text x="30.0" y="46.0" font-size="11" text-anchor="start" fill="#52514e" font-weight="400">Stock GridPACK</text>
<rect x="131.0" y="37.0" width="10" height="10" rx="2" fill="#eb6834"/>
<text x="145.0" y="46.0" font-size="11" text-anchor="start" fill="#52514e" font-weight="400">Optimized CPU</text>
<rect x="239.5" y="37.0" width="10" height="10" rx="2" fill="#1baf7a"/>
<text x="253.5" y="46.0" font-size="11" text-anchor="start" fill="#52514e" font-weight="400">Alg 2</text>
<rect x="296.0" y="37.0" width="10" height="10" rx="2" fill="#eda100"/>
<text x="310.0" y="46.0" font-size="11" text-anchor="start" fill="#52514e" font-weight="400">cuDSS</text>
<text x="50.0" y="82.0" font-size="12" text-anchor="start" fill="#0b0b0b" font-weight="600">Memphis</text>
<line x1="50.0" y1="200.0" x2="190.0" y2="200.0" stroke="#e4e3df" stroke-width="1"/>
<text x="46.0" y="204.0" font-size="10" text-anchor="end" fill="#52514e" font-weight="400">0.4</text>
<line x1="50.0" y1="172.5" x2="190.0" y2="172.5" stroke="#e4e3df" stroke-width="1"/>
<text x="46.0" y="176.5" font-size="10" text-anchor="end" fill="#52514e" font-weight="400">0.6</text>
<line x1="50.0" y1="145.0" x2="190.0" y2="145.0" stroke="#e4e3df" stroke-width="1"/>
<text x="46.0" y="149.0" font-size="10" text-anchor="end" fill="#52514e" font-weight="400">0.8</text>
<line x1="50.0" y1="117.5" x2="190.0" y2="117.5" stroke="#52514e" stroke-width="1"/>
<text x="46.0" y="121.5" font-size="10" text-anchor="end" fill="#52514e" font-weight="400">1.0</text>
<line x1="50.0" y1="90.0" x2="190.0" y2="90.0" stroke="#e4e3df" stroke-width="1"/>
<text x="46.0" y="94.0" font-size="10" text-anchor="end" fill="#52514e" font-weight="400">1.2</text>
<text x="50.0" y="214.0" font-size="10" text-anchor="middle" fill="#52514e" font-weight="400">8</text>
<text x="143.3" y="214.0" font-size="10" text-anchor="middle" fill="#52514e" font-weight="400">16</text>
<text x="190.0" y="214.0" font-size="10" text-anchor="middle" fill="#52514e" font-weight="400">20</text>
<polyline points="50.0,117.5 143.3,152.1 190.0,145.3" fill="none" stroke="#2a78d6" stroke-width="2" stroke-linejoin="round" stroke-linecap="round"/>
<circle cx="50.0" cy="117.5" r="4" fill="#2a78d6" stroke="#fcfcfb" stroke-width="2"><title>Memphis, Stock GridPACK, 8 ranks: 6.2 s (1.00 of 8 ranks)</title></circle>
<circle cx="143.3" cy="152.1" r="4" fill="#2a78d6" stroke="#fcfcfb" stroke-width="2"><title>Memphis, Stock GridPACK, 16 ranks: 4.7 s (0.75 of 8 ranks)</title></circle>
<circle cx="190.0" cy="145.3" r="4" fill="#2a78d6" stroke="#fcfcfb" stroke-width="2"><title>Memphis, Stock GridPACK, 20 ranks: 5.0 s (0.80 of 8 ranks)</title></circle>
<polyline points="50.0,117.5 143.3,140.1 190.0,137.5" fill="none" stroke="#eb6834" stroke-width="2" stroke-linejoin="round" stroke-linecap="round"/>
<circle cx="50.0" cy="117.5" r="4" fill="#eb6834" stroke="#fcfcfb" stroke-width="2"><title>Memphis, Optimized CPU, 8 ranks: 4.4 s (1.00 of 8 ranks)</title></circle>
<circle cx="143.3" cy="140.1" r="4" fill="#eb6834" stroke="#fcfcfb" stroke-width="2"><title>Memphis, Optimized CPU, 16 ranks: 3.7 s (0.84 of 8 ranks)</title></circle>
<circle cx="190.0" cy="137.5" r="4" fill="#eb6834" stroke="#fcfcfb" stroke-width="2"><title>Memphis, Optimized CPU, 20 ranks: 3.8 s (0.85 of 8 ranks)</title></circle>
<polyline points="50.0,117.5 143.3,121.8 190.0,115.4" fill="none" stroke="#1baf7a" stroke-width="2" stroke-linejoin="round" stroke-linecap="round"/>
<circle cx="50.0" cy="117.5" r="4" fill="#1baf7a" stroke="#fcfcfb" stroke-width="2"><title>Memphis, Alg 2, 8 ranks: 4.0 s (1.00 of 8 ranks)</title></circle>
<circle cx="143.3" cy="121.8" r="4" fill="#1baf7a" stroke="#fcfcfb" stroke-width="2"><title>Memphis, Alg 2, 16 ranks: 3.9 s (0.97 of 8 ranks)</title></circle>
<circle cx="190.0" cy="115.4" r="4" fill="#1baf7a" stroke="#fcfcfb" stroke-width="2"><title>Memphis, Alg 2, 20 ranks: 4.1 s (1.01 of 8 ranks)</title></circle>
<polyline points="50.0,117.5 143.3,120.8 190.0,103.8" fill="none" stroke="#eda100" stroke-width="2" stroke-linejoin="round" stroke-linecap="round"/>
<circle cx="50.0" cy="117.5" r="4" fill="#eda100" stroke="#fcfcfb" stroke-width="2"><title>Memphis, cuDSS, 8 ranks: 4.4 s (1.00 of 8 ranks)</title></circle>
<circle cx="143.3" cy="120.8" r="4" fill="#eda100" stroke="#fcfcfb" stroke-width="2"><title>Memphis, cuDSS, 16 ranks: 4.3 s (0.98 of 8 ranks)</title></circle>
<circle cx="190.0" cy="103.8" r="4" fill="#eda100" stroke="#fcfcfb" stroke-width="2"><title>Memphis, cuDSS, 20 ranks: 4.8 s (1.10 of 8 ranks)</title></circle>
<text x="250.0" y="82.0" font-size="12" text-anchor="start" fill="#0b0b0b" font-weight="600">Wisconsin</text>
<line x1="250.0" y1="200.0" x2="390.0" y2="200.0" stroke="#e4e3df" stroke-width="1"/>
<text x="246.0" y="204.0" font-size="10" text-anchor="end" fill="#52514e" font-weight="400">0.4</text>
<line x1="250.0" y1="172.5" x2="390.0" y2="172.5" stroke="#e4e3df" stroke-width="1"/>
<text x="246.0" y="176.5" font-size="10" text-anchor="end" fill="#52514e" font-weight="400">0.6</text>
<line x1="250.0" y1="145.0" x2="390.0" y2="145.0" stroke="#e4e3df" stroke-width="1"/>
<text x="246.0" y="149.0" font-size="10" text-anchor="end" fill="#52514e" font-weight="400">0.8</text>
<line x1="250.0" y1="117.5" x2="390.0" y2="117.5" stroke="#52514e" stroke-width="1"/>
<text x="246.0" y="121.5" font-size="10" text-anchor="end" fill="#52514e" font-weight="400">1.0</text>
<line x1="250.0" y1="90.0" x2="390.0" y2="90.0" stroke="#e4e3df" stroke-width="1"/>
<text x="246.0" y="94.0" font-size="10" text-anchor="end" fill="#52514e" font-weight="400">1.2</text>
<text x="250.0" y="214.0" font-size="10" text-anchor="middle" fill="#52514e" font-weight="400">8</text>
<text x="343.3" y="214.0" font-size="10" text-anchor="middle" fill="#52514e" font-weight="400">16</text>
<text x="390.0" y="214.0" font-size="10" text-anchor="middle" fill="#52514e" font-weight="400">20</text>
<polyline points="250.0,117.5 343.3,156.5 390.0,154.4" fill="none" stroke="#2a78d6" stroke-width="2" stroke-linejoin="round" stroke-linecap="round"/>
<circle cx="250.0" cy="117.5" r="4" fill="#2a78d6" stroke="#fcfcfb" stroke-width="2"><title>Wisconsin, Stock GridPACK, 8 ranks: 12.8 s (1.00 of 8 ranks)</title></circle>
<circle cx="343.3" cy="156.5" r="4" fill="#2a78d6" stroke="#fcfcfb" stroke-width="2"><title>Wisconsin, Stock GridPACK, 16 ranks: 9.1 s (0.72 of 8 ranks)</title></circle>
<circle cx="390.0" cy="154.4" r="4" fill="#2a78d6" stroke="#fcfcfb" stroke-width="2"><title>Wisconsin, Stock GridPACK, 20 ranks: 9.3 s (0.73 of 8 ranks)</title></circle>
<polyline points="250.0,117.5 343.3,148.4 390.0,152.4" fill="none" stroke="#eb6834" stroke-width="2" stroke-linejoin="round" stroke-linecap="round"/>
<circle cx="250.0" cy="117.5" r="4" fill="#eb6834" stroke="#fcfcfb" stroke-width="2"><title>Wisconsin, Optimized CPU, 8 ranks: 8.2 s (1.00 of 8 ranks)</title></circle>
<circle cx="343.3" cy="148.4" r="4" fill="#eb6834" stroke="#fcfcfb" stroke-width="2"><title>Wisconsin, Optimized CPU, 16 ranks: 6.3 s (0.78 of 8 ranks)</title></circle>
<circle cx="390.0" cy="152.4" r="4" fill="#eb6834" stroke="#fcfcfb" stroke-width="2"><title>Wisconsin, Optimized CPU, 20 ranks: 6.1 s (0.75 of 8 ranks)</title></circle>
<polyline points="250.0,117.5 343.3,112.8 390.0,101.4" fill="none" stroke="#1baf7a" stroke-width="2" stroke-linejoin="round" stroke-linecap="round"/>
<circle cx="250.0" cy="117.5" r="4" fill="#1baf7a" stroke="#fcfcfb" stroke-width="2"><title>Wisconsin, Alg 2, 8 ranks: 3.5 s (1.00 of 8 ranks)</title></circle>
<circle cx="343.3" cy="112.8" r="4" fill="#1baf7a" stroke="#fcfcfb" stroke-width="2"><title>Wisconsin, Alg 2, 16 ranks: 3.6 s (1.03 of 8 ranks)</title></circle>
<circle cx="390.0" cy="101.4" r="4" fill="#1baf7a" stroke="#fcfcfb" stroke-width="2"><title>Wisconsin, Alg 2, 20 ranks: 3.9 s (1.12 of 8 ranks)</title></circle>
<polyline points="250.0,117.5 343.3,112.2 390.0,106.6" fill="none" stroke="#eda100" stroke-width="2" stroke-linejoin="round" stroke-linecap="round"/>
<circle cx="250.0" cy="117.5" r="4" fill="#eda100" stroke="#fcfcfb" stroke-width="2"><title>Wisconsin, cuDSS, 8 ranks: 4.2 s (1.00 of 8 ranks)</title></circle>
<circle cx="343.3" cy="112.2" r="4" fill="#eda100" stroke="#fcfcfb" stroke-width="2"><title>Wisconsin, cuDSS, 16 ranks: 4.3 s (1.04 of 8 ranks)</title></circle>
<circle cx="390.0" cy="106.6" r="4" fill="#eda100" stroke="#fcfcfb" stroke-width="2"><title>Wisconsin, cuDSS, 20 ranks: 4.5 s (1.08 of 8 ranks)</title></circle>
<text x="450.0" y="82.0" font-size="12" text-anchor="start" fill="#0b0b0b" font-weight="600">Florida</text>
<line x1="450.0" y1="200.0" x2="590.0" y2="200.0" stroke="#e4e3df" stroke-width="1"/>
<text x="446.0" y="204.0" font-size="10" text-anchor="end" fill="#52514e" font-weight="400">0.4</text>
<line x1="450.0" y1="172.5" x2="590.0" y2="172.5" stroke="#e4e3df" stroke-width="1"/>
<text x="446.0" y="176.5" font-size="10" text-anchor="end" fill="#52514e" font-weight="400">0.6</text>
<line x1="450.0" y1="145.0" x2="590.0" y2="145.0" stroke="#e4e3df" stroke-width="1"/>
<text x="446.0" y="149.0" font-size="10" text-anchor="end" fill="#52514e" font-weight="400">0.8</text>
<line x1="450.0" y1="117.5" x2="590.0" y2="117.5" stroke="#52514e" stroke-width="1"/>
<text x="446.0" y="121.5" font-size="10" text-anchor="end" fill="#52514e" font-weight="400">1.0</text>
<line x1="450.0" y1="90.0" x2="590.0" y2="90.0" stroke="#e4e3df" stroke-width="1"/>
<text x="446.0" y="94.0" font-size="10" text-anchor="end" fill="#52514e" font-weight="400">1.2</text>
<text x="450.0" y="214.0" font-size="10" text-anchor="middle" fill="#52514e" font-weight="400">8</text>
<text x="543.3" y="214.0" font-size="10" text-anchor="middle" fill="#52514e" font-weight="400">16</text>
<text x="590.0" y="214.0" font-size="10" text-anchor="middle" fill="#52514e" font-weight="400">20</text>
<polyline points="450.0,117.5 543.3,161.7 590.0,168.0" fill="none" stroke="#2a78d6" stroke-width="2" stroke-linejoin="round" stroke-linecap="round"/>
<circle cx="450.0" cy="117.5" r="4" fill="#2a78d6" stroke="#fcfcfb" stroke-width="2"><title>Florida, Stock GridPACK, 8 ranks: 191.1 s (1.00 of 8 ranks)</title></circle>
<circle cx="543.3" cy="161.7" r="4" fill="#2a78d6" stroke="#fcfcfb" stroke-width="2"><title>Florida, Stock GridPACK, 16 ranks: 129.7 s (0.68 of 8 ranks)</title></circle>
<circle cx="590.0" cy="168.0" r="4" fill="#2a78d6" stroke="#fcfcfb" stroke-width="2"><title>Florida, Stock GridPACK, 20 ranks: 120.9 s (0.63 of 8 ranks)</title></circle>
<polyline points="450.0,117.5 543.3,160.4 590.0,170.8" fill="none" stroke="#eb6834" stroke-width="2" stroke-linejoin="round" stroke-linecap="round"/>
<circle cx="450.0" cy="117.5" r="4" fill="#eb6834" stroke="#fcfcfb" stroke-width="2"><title>Florida, Optimized CPU, 8 ranks: 131.0 s (1.00 of 8 ranks)</title></circle>
<circle cx="543.3" cy="160.4" r="4" fill="#eb6834" stroke="#fcfcfb" stroke-width="2"><title>Florida, Optimized CPU, 16 ranks: 90.1 s (0.69 of 8 ranks)</title></circle>
<circle cx="590.0" cy="170.8" r="4" fill="#eb6834" stroke="#fcfcfb" stroke-width="2"><title>Florida, Optimized CPU, 20 ranks: 80.2 s (0.61 of 8 ranks)</title></circle>
<polyline points="450.0,117.5 543.3,145.4 590.0,148.2" fill="none" stroke="#1baf7a" stroke-width="2" stroke-linejoin="round" stroke-linecap="round"/>
<circle cx="450.0" cy="117.5" r="4" fill="#1baf7a" stroke="#fcfcfb" stroke-width="2"><title>Florida, Alg 2, 8 ranks: 20.7 s (1.00 of 8 ranks)</title></circle>
<circle cx="543.3" cy="145.4" r="4" fill="#1baf7a" stroke="#fcfcfb" stroke-width="2"><title>Florida, Alg 2, 16 ranks: 16.5 s (0.80 of 8 ranks)</title></circle>
<circle cx="590.0" cy="148.2" r="4" fill="#1baf7a" stroke="#fcfcfb" stroke-width="2"><title>Florida, Alg 2, 20 ranks: 16.1 s (0.78 of 8 ranks)</title></circle>
<polyline points="450.0,117.5 543.3,142.0 590.0,145.1" fill="none" stroke="#eda100" stroke-width="2" stroke-linejoin="round" stroke-linecap="round"/>
<circle cx="450.0" cy="117.5" r="4" fill="#eda100" stroke="#fcfcfb" stroke-width="2"><title>Florida, cuDSS, 8 ranks: 20.5 s (1.00 of 8 ranks)</title></circle>
<circle cx="543.3" cy="142.0" r="4" fill="#eda100" stroke="#fcfcfb" stroke-width="2"><title>Florida, cuDSS, 16 ranks: 16.9 s (0.82 of 8 ranks)</title></circle>
<circle cx="590.0" cy="145.1" r="4" fill="#eda100" stroke="#fcfcfb" stroke-width="2"><title>Florida, cuDSS, 20 ranks: 16.4 s (0.80 of 8 ranks)</title></circle>
<text x="650.0" y="82.0" font-size="12" text-anchor="start" fill="#0b0b0b" font-weight="600">Texas7k</text>
<line x1="650.0" y1="200.0" x2="790.0" y2="200.0" stroke="#e4e3df" stroke-width="1"/>
<text x="646.0" y="204.0" font-size="10" text-anchor="end" fill="#52514e" font-weight="400">0.4</text>
<line x1="650.0" y1="172.5" x2="790.0" y2="172.5" stroke="#e4e3df" stroke-width="1"/>
<text x="646.0" y="176.5" font-size="10" text-anchor="end" fill="#52514e" font-weight="400">0.6</text>
<line x1="650.0" y1="145.0" x2="790.0" y2="145.0" stroke="#e4e3df" stroke-width="1"/>
<text x="646.0" y="149.0" font-size="10" text-anchor="end" fill="#52514e" font-weight="400">0.8</text>
<line x1="650.0" y1="117.5" x2="790.0" y2="117.5" stroke="#52514e" stroke-width="1"/>
<text x="646.0" y="121.5" font-size="10" text-anchor="end" fill="#52514e" font-weight="400">1.0</text>
<line x1="650.0" y1="90.0" x2="790.0" y2="90.0" stroke="#e4e3df" stroke-width="1"/>
<text x="646.0" y="94.0" font-size="10" text-anchor="end" fill="#52514e" font-weight="400">1.2</text>
<text x="650.0" y="214.0" font-size="10" text-anchor="middle" fill="#52514e" font-weight="400">8</text>
<text x="743.3" y="214.0" font-size="10" text-anchor="middle" fill="#52514e" font-weight="400">16</text>
<text x="790.0" y="214.0" font-size="10" text-anchor="middle" fill="#52514e" font-weight="400">20</text>
<polyline points="650.0,117.5 743.3,163.0 790.0,169.2" fill="none" stroke="#2a78d6" stroke-width="2" stroke-linejoin="round" stroke-linecap="round"/>
<circle cx="650.0" cy="117.5" r="4" fill="#2a78d6" stroke="#fcfcfb" stroke-width="2"><title>Texas7k, Stock GridPACK, 8 ranks: 212.4 s (1.00 of 8 ranks)</title></circle>
<circle cx="743.3" cy="163.0" r="4" fill="#2a78d6" stroke="#fcfcfb" stroke-width="2"><title>Texas7k, Stock GridPACK, 16 ranks: 142.2 s (0.67 of 8 ranks)</title></circle>
<circle cx="790.0" cy="169.2" r="4" fill="#2a78d6" stroke="#fcfcfb" stroke-width="2"><title>Texas7k, Stock GridPACK, 20 ranks: 132.5 s (0.62 of 8 ranks)</title></circle>
<polyline points="650.0,117.5 743.3,162.2 790.0,172.4" fill="none" stroke="#eb6834" stroke-width="2" stroke-linejoin="round" stroke-linecap="round"/>
<circle cx="650.0" cy="117.5" r="4" fill="#eb6834" stroke="#fcfcfb" stroke-width="2"><title>Texas7k, Optimized CPU, 8 ranks: 149.7 s (1.00 of 8 ranks)</title></circle>
<circle cx="743.3" cy="162.2" r="4" fill="#eb6834" stroke="#fcfcfb" stroke-width="2"><title>Texas7k, Optimized CPU, 16 ranks: 101.0 s (0.67 of 8 ranks)</title></circle>
<circle cx="790.0" cy="172.4" r="4" fill="#eb6834" stroke="#fcfcfb" stroke-width="2"><title>Texas7k, Optimized CPU, 20 ranks: 89.9 s (0.60 of 8 ranks)</title></circle>
<polyline points="650.0,117.5 743.3,127.0 790.0,123.3" fill="none" stroke="#1baf7a" stroke-width="2" stroke-linejoin="round" stroke-linecap="round"/>
<circle cx="650.0" cy="117.5" r="4" fill="#1baf7a" stroke="#fcfcfb" stroke-width="2"><title>Texas7k, Alg 2, 8 ranks: 23.9 s (1.00 of 8 ranks)</title></circle>
<circle cx="743.3" cy="127.0" r="4" fill="#1baf7a" stroke="#fcfcfb" stroke-width="2"><title>Texas7k, Alg 2, 16 ranks: 22.3 s (0.93 of 8 ranks)</title></circle>
<circle cx="790.0" cy="123.3" r="4" fill="#1baf7a" stroke="#fcfcfb" stroke-width="2"><title>Texas7k, Alg 2, 20 ranks: 22.9 s (0.96 of 8 ranks)</title></circle>
<polyline points="650.0,117.5 743.3,127.9 790.0,129.1" fill="none" stroke="#eda100" stroke-width="2" stroke-linejoin="round" stroke-linecap="round"/>
<circle cx="650.0" cy="117.5" r="4" fill="#eda100" stroke="#fcfcfb" stroke-width="2"><title>Texas7k, cuDSS, 8 ranks: 23.6 s (1.00 of 8 ranks)</title></circle>
<circle cx="743.3" cy="127.9" r="4" fill="#eda100" stroke="#fcfcfb" stroke-width="2"><title>Texas7k, cuDSS, 16 ranks: 21.8 s (0.92 of 8 ranks)</title></circle>
<circle cx="790.0" cy="129.1" r="4" fill="#eda100" stroke="#fcfcfb" stroke-width="2"><title>Texas7k, cuDSS, 20 ranks: 21.6 s (0.92 of 8 ranks)</title></circle>
<text x="50.0" y="252.0" font-size="12" text-anchor="start" fill="#0b0b0b" font-weight="600">ACTIVSg10k</text>
<line x1="50.0" y1="370.0" x2="190.0" y2="370.0" stroke="#e4e3df" stroke-width="1"/>
<text x="46.0" y="374.0" font-size="10" text-anchor="end" fill="#52514e" font-weight="400">0.4</text>
<line x1="50.0" y1="342.5" x2="190.0" y2="342.5" stroke="#e4e3df" stroke-width="1"/>
<text x="46.0" y="346.5" font-size="10" text-anchor="end" fill="#52514e" font-weight="400">0.6</text>
<line x1="50.0" y1="315.0" x2="190.0" y2="315.0" stroke="#e4e3df" stroke-width="1"/>
<text x="46.0" y="319.0" font-size="10" text-anchor="end" fill="#52514e" font-weight="400">0.8</text>
<line x1="50.0" y1="287.5" x2="190.0" y2="287.5" stroke="#52514e" stroke-width="1"/>
<text x="46.0" y="291.5" font-size="10" text-anchor="end" fill="#52514e" font-weight="400">1.0</text>
<line x1="50.0" y1="260.0" x2="190.0" y2="260.0" stroke="#e4e3df" stroke-width="1"/>
<text x="46.0" y="264.0" font-size="10" text-anchor="end" fill="#52514e" font-weight="400">1.2</text>
<text x="50.0" y="384.0" font-size="10" text-anchor="middle" fill="#52514e" font-weight="400">8</text>
<text x="143.3" y="384.0" font-size="10" text-anchor="middle" fill="#52514e" font-weight="400">16</text>
<text x="190.0" y="384.0" font-size="10" text-anchor="middle" fill="#52514e" font-weight="400">20</text>
<polyline points="50.0,287.5 143.3,336.0 190.0,343.4" fill="none" stroke="#2a78d6" stroke-width="2" stroke-linejoin="round" stroke-linecap="round"/>
<circle cx="50.0" cy="287.5" r="4" fill="#2a78d6" stroke="#fcfcfb" stroke-width="2"><title>ACTIVSg10k, Stock GridPACK, 8 ranks: 491.6 s (1.00 of 8 ranks)</title></circle>
<circle cx="143.3" cy="336.0" r="4" fill="#2a78d6" stroke="#fcfcfb" stroke-width="2"><title>ACTIVSg10k, Stock GridPACK, 16 ranks: 318.2 s (0.65 of 8 ranks)</title></circle>
<circle cx="190.0" cy="343.4" r="4" fill="#2a78d6" stroke="#fcfcfb" stroke-width="2"><title>ACTIVSg10k, Stock GridPACK, 20 ranks: 291.7 s (0.59 of 8 ranks)</title></circle>
<polyline points="50.0,287.5 143.3,335.0 190.0,345.5" fill="none" stroke="#eb6834" stroke-width="2" stroke-linejoin="round" stroke-linecap="round"/>
<circle cx="50.0" cy="287.5" r="4" fill="#eb6834" stroke="#fcfcfb" stroke-width="2"><title>ACTIVSg10k, Optimized CPU, 8 ranks: 364.0 s (1.00 of 8 ranks)</title></circle>
<circle cx="143.3" cy="335.0" r="4" fill="#eb6834" stroke="#fcfcfb" stroke-width="2"><title>ACTIVSg10k, Optimized CPU, 16 ranks: 238.2 s (0.65 of 8 ranks)</title></circle>
<circle cx="190.0" cy="345.5" r="4" fill="#eb6834" stroke="#fcfcfb" stroke-width="2"><title>ACTIVSg10k, Optimized CPU, 20 ranks: 210.5 s (0.58 of 8 ranks)</title></circle>
<polyline points="50.0,287.5 143.3,324.8 190.0,329.6" fill="none" stroke="#1baf7a" stroke-width="2" stroke-linejoin="round" stroke-linecap="round"/>
<circle cx="50.0" cy="287.5" r="4" fill="#1baf7a" stroke="#fcfcfb" stroke-width="2"><title>ACTIVSg10k, Alg 2, 8 ranks: 48.0 s (1.00 of 8 ranks)</title></circle>
<circle cx="143.3" cy="324.8" r="4" fill="#1baf7a" stroke="#fcfcfb" stroke-width="2"><title>ACTIVSg10k, Alg 2, 16 ranks: 35.0 s (0.73 of 8 ranks)</title></circle>
<circle cx="190.0" cy="329.6" r="4" fill="#1baf7a" stroke="#fcfcfb" stroke-width="2"><title>ACTIVSg10k, Alg 2, 20 ranks: 33.3 s (0.69 of 8 ranks)</title></circle>
<polyline points="50.0,287.5 143.3,324.0 190.0,321.8" fill="none" stroke="#eda100" stroke-width="2" stroke-linejoin="round" stroke-linecap="round"/>
<circle cx="50.0" cy="287.5" r="4" fill="#eda100" stroke="#fcfcfb" stroke-width="2"><title>ACTIVSg10k, cuDSS, 8 ranks: 48.5 s (1.00 of 8 ranks)</title></circle>
<circle cx="143.3" cy="324.0" r="4" fill="#eda100" stroke="#fcfcfb" stroke-width="2"><title>ACTIVSg10k, cuDSS, 16 ranks: 35.6 s (0.73 of 8 ranks)</title></circle>
<circle cx="190.0" cy="321.8" r="4" fill="#eda100" stroke="#fcfcfb" stroke-width="2"><title>ACTIVSg10k, cuDSS, 20 ranks: 36.4 s (0.75 of 8 ranks)</title></circle>
<text x="250.0" y="252.0" font-size="12" text-anchor="start" fill="#0b0b0b" font-weight="600">MIOHIN</text>
<line x1="250.0" y1="370.0" x2="390.0" y2="370.0" stroke="#e4e3df" stroke-width="1"/>
<text x="246.0" y="374.0" font-size="10" text-anchor="end" fill="#52514e" font-weight="400">0.4</text>
<line x1="250.0" y1="342.5" x2="390.0" y2="342.5" stroke="#e4e3df" stroke-width="1"/>
<text x="246.0" y="346.5" font-size="10" text-anchor="end" fill="#52514e" font-weight="400">0.6</text>
<line x1="250.0" y1="315.0" x2="390.0" y2="315.0" stroke="#e4e3df" stroke-width="1"/>
<text x="246.0" y="319.0" font-size="10" text-anchor="end" fill="#52514e" font-weight="400">0.8</text>
<line x1="250.0" y1="287.5" x2="390.0" y2="287.5" stroke="#52514e" stroke-width="1"/>
<text x="246.0" y="291.5" font-size="10" text-anchor="end" fill="#52514e" font-weight="400">1.0</text>
<line x1="250.0" y1="260.0" x2="390.0" y2="260.0" stroke="#e4e3df" stroke-width="1"/>
<text x="246.0" y="264.0" font-size="10" text-anchor="end" fill="#52514e" font-weight="400">1.2</text>
<text x="250.0" y="384.0" font-size="10" text-anchor="middle" fill="#52514e" font-weight="400">8</text>
<text x="343.3" y="384.0" font-size="10" text-anchor="middle" fill="#52514e" font-weight="400">16</text>
<text x="390.0" y="384.0" font-size="10" text-anchor="middle" fill="#52514e" font-weight="400">20</text>
<polyline points="250.0,287.5 343.3,334.4 390.0,340.5" fill="none" stroke="#2a78d6" stroke-width="2" stroke-linejoin="round" stroke-linecap="round"/>
<circle cx="250.0" cy="287.5" r="4" fill="#2a78d6" stroke="#fcfcfb" stroke-width="2"><title>MIOHIN, Stock GridPACK, 8 ranks: 719.2 s (1.00 of 8 ranks)</title></circle>
<circle cx="343.3" cy="334.4" r="4" fill="#2a78d6" stroke="#fcfcfb" stroke-width="2"><title>MIOHIN, Stock GridPACK, 16 ranks: 474.0 s (0.66 of 8 ranks)</title></circle>
<circle cx="390.0" cy="340.5" r="4" fill="#2a78d6" stroke="#fcfcfb" stroke-width="2"><title>MIOHIN, Stock GridPACK, 20 ranks: 442.1 s (0.61 of 8 ranks)</title></circle>
<polyline points="250.0,287.5 343.3,335.1 390.0,344.8" fill="none" stroke="#eb6834" stroke-width="2" stroke-linejoin="round" stroke-linecap="round"/>
<circle cx="250.0" cy="287.5" r="4" fill="#eb6834" stroke="#fcfcfb" stroke-width="2"><title>MIOHIN, Optimized CPU, 8 ranks: 522.1 s (1.00 of 8 ranks)</title></circle>
<circle cx="343.3" cy="335.1" r="4" fill="#eb6834" stroke="#fcfcfb" stroke-width="2"><title>MIOHIN, Optimized CPU, 16 ranks: 341.2 s (0.65 of 8 ranks)</title></circle>
<circle cx="390.0" cy="344.8" r="4" fill="#eb6834" stroke="#fcfcfb" stroke-width="2"><title>MIOHIN, Optimized CPU, 20 ranks: 304.6 s (0.58 of 8 ranks)</title></circle>
<polyline points="250.0,287.5 343.3,310.8 390.0,319.0" fill="none" stroke="#1baf7a" stroke-width="2" stroke-linejoin="round" stroke-linecap="round"/>
<circle cx="250.0" cy="287.5" r="4" fill="#1baf7a" stroke="#fcfcfb" stroke-width="2"><title>MIOHIN, Alg 2, 8 ranks: 80.2 s (1.00 of 8 ranks)</title></circle>
<circle cx="343.3" cy="310.8" r="4" fill="#1baf7a" stroke="#fcfcfb" stroke-width="2"><title>MIOHIN, Alg 2, 16 ranks: 66.6 s (0.83 of 8 ranks)</title></circle>
<circle cx="390.0" cy="319.0" r="4" fill="#1baf7a" stroke="#fcfcfb" stroke-width="2"><title>MIOHIN, Alg 2, 20 ranks: 61.8 s (0.77 of 8 ranks)</title></circle>
<polyline points="250.0,287.5 343.3,320.3 390.0,321.6" fill="none" stroke="#eda100" stroke-width="2" stroke-linejoin="round" stroke-linecap="round"/>
<circle cx="250.0" cy="287.5" r="4" fill="#eda100" stroke="#fcfcfb" stroke-width="2"><title>MIOHIN, cuDSS, 8 ranks: 72.4 s (1.00 of 8 ranks)</title></circle>
<circle cx="343.3" cy="320.3" r="4" fill="#eda100" stroke="#fcfcfb" stroke-width="2"><title>MIOHIN, cuDSS, 16 ranks: 55.1 s (0.76 of 8 ranks)</title></circle>
<circle cx="390.0" cy="321.6" r="4" fill="#eda100" stroke="#fcfcfb" stroke-width="2"><title>MIOHIN, cuDSS, 20 ranks: 54.4 s (0.75 of 8 ranks)</title></circle>
<text x="450.0" y="252.0" font-size="12" text-anchor="start" fill="#0b0b0b" font-weight="600">private network</text>
<line x1="450.0" y1="370.0" x2="590.0" y2="370.0" stroke="#e4e3df" stroke-width="1"/>
<text x="446.0" y="374.0" font-size="10" text-anchor="end" fill="#52514e" font-weight="400">0.4</text>
<line x1="450.0" y1="342.5" x2="590.0" y2="342.5" stroke="#e4e3df" stroke-width="1"/>
<text x="446.0" y="346.5" font-size="10" text-anchor="end" fill="#52514e" font-weight="400">0.6</text>
<line x1="450.0" y1="315.0" x2="590.0" y2="315.0" stroke="#e4e3df" stroke-width="1"/>
<text x="446.0" y="319.0" font-size="10" text-anchor="end" fill="#52514e" font-weight="400">0.8</text>
<line x1="450.0" y1="287.5" x2="590.0" y2="287.5" stroke="#52514e" stroke-width="1"/>
<text x="446.0" y="291.5" font-size="10" text-anchor="end" fill="#52514e" font-weight="400">1.0</text>
<line x1="450.0" y1="260.0" x2="590.0" y2="260.0" stroke="#e4e3df" stroke-width="1"/>
<text x="446.0" y="264.0" font-size="10" text-anchor="end" fill="#52514e" font-weight="400">1.2</text>
<text x="450.0" y="384.0" font-size="10" text-anchor="middle" fill="#52514e" font-weight="400">8</text>
<text x="543.3" y="384.0" font-size="10" text-anchor="middle" fill="#52514e" font-weight="400">16</text>
<text x="590.0" y="384.0" font-size="10" text-anchor="middle" fill="#52514e" font-weight="400">20</text>
<polyline points="450.0,287.5 543.3,340.6 590.0,351.5" fill="none" stroke="#eb6834" stroke-width="2" stroke-linejoin="round" stroke-linecap="round"/>
<circle cx="450.0" cy="287.5" r="4" fill="#eb6834" stroke="#fcfcfb" stroke-width="2"><title>private network, Optimized CPU, 8 ranks: 5072.0 s (1.00 of 8 ranks)</title></circle>
<circle cx="543.3" cy="340.6" r="4" fill="#eb6834" stroke="#fcfcfb" stroke-width="2"><title>private network, Optimized CPU, 16 ranks: 3113.6 s (0.61 of 8 ranks)</title></circle>
<circle cx="590.0" cy="351.5" r="4" fill="#eb6834" stroke="#fcfcfb" stroke-width="2"><title>private network, Optimized CPU, 20 ranks: 2711.8 s (0.53 of 8 ranks)</title></circle>
<polyline points="450.0,287.5 543.3,332.4 590.0,340.9" fill="none" stroke="#1baf7a" stroke-width="2" stroke-linejoin="round" stroke-linecap="round"/>
<circle cx="450.0" cy="287.5" r="4" fill="#1baf7a" stroke="#fcfcfb" stroke-width="2"><title>private network, Alg 2, 8 ranks: 560.6 s (1.00 of 8 ranks)</title></circle>
<circle cx="543.3" cy="332.4" r="4" fill="#1baf7a" stroke="#fcfcfb" stroke-width="2"><title>private network, Alg 2, 16 ranks: 377.4 s (0.67 of 8 ranks)</title></circle>
<circle cx="590.0" cy="340.9" r="4" fill="#1baf7a" stroke="#fcfcfb" stroke-width="2"><title>private network, Alg 2, 20 ranks: 342.8 s (0.61 of 8 ranks)</title></circle>
<polyline points="450.0,287.5 543.3,332.3 590.0,335.3" fill="none" stroke="#eda100" stroke-width="2" stroke-linejoin="round" stroke-linecap="round"/>
<circle cx="450.0" cy="287.5" r="4" fill="#eda100" stroke="#fcfcfb" stroke-width="2"><title>private network, cuDSS, 8 ranks: 574.5 s (1.00 of 8 ranks)</title></circle>
<circle cx="543.3" cy="332.3" r="4" fill="#eda100" stroke="#fcfcfb" stroke-width="2"><title>private network, cuDSS, 16 ranks: 387.2 s (0.67 of 8 ranks)</title></circle>
<circle cx="590.0" cy="335.3" r="4" fill="#eda100" stroke="#fcfcfb" stroke-width="2"><title>private network, cuDSS, 20 ranks: 374.9 s (0.65 of 8 ranks)</title></circle>
<text x="16.0" y="402.0" font-size="10" text-anchor="start" fill="#52514e" font-weight="400">x axis: processes (MPI ranks)</text>
</svg>
